PathFileType	4	(X/Y/Z)	C:/Users/opensim2020/Desktop/walking_exp_matlab/subject01_walking04_straight_04.trc	
DataRate	CameraRate	NumFrames	NumMarkers	Units	OrigDataRate	OrigDataStartFrame	OrigNumFrames	
100.00	100.00	4	43	mm	100.00	2906	279	
Frame#	Time	LFHD			RFHD			LBHD			RBHD			C7			T10			CLAV			STRN			RBAK			LSHO			LUPA			LELB			LFRM			LWRA			LWRB			LFIN			RSHO			RUPA			RELB			RFRM			RWRA			RWRB			RFIN			LASI			RASI			LPSI			RPSI			LTHI			LKNE			LTIB			LANK			LHEE			LTOE			RTHI			RKNE			RTIB			RANK			RHEE			RTOE			*39			*40			*41			*42			
		X1	Y1	Z1	X2	Y2	Z2	X3	Y3	Z3	X4	Y4	Z4	X5	Y5	Z5	X6	Y6	Z6	X7	Y7	Z7	X8	Y8	Z8	X9	Y9	Z9	X10	Y10	Z10	X11	Y11	Z11	X12	Y12	Z12	X13	Y13	Z13	X14	Y14	Z14	X15	Y15	Z15	X16	Y16	Z16	X17	Y17	Z17	X18	Y18	Z18	X19	Y19	Z19	X20	Y20	Z20	X21	Y21	Z21	X22	Y22	Z22	X23	Y23	Z23	X24	Y24	Z24	X25	Y25	Z25	X26	Y26	Z26	X27	Y27	Z27	X28	Y28	Z28	X29	Y29	Z29	X30	Y30	Z30	X31	Y31	Z31	X32	Y32	Z32	X33	Y33	Z33	X34	Y34	Z34	X35	Y35	Z35	X36	Y36	Z36	X37	Y37	Z37	X38	Y38	Z38	X39	Y39	Z39	X40	Y40	Z40	X41	Y41	Z41	X42	Y42	Z42	X43	Y43	Z43	

210	2.090	1509.10181	-164.89635	1653.65942	1396.23206	-185.36867	1654.06384	1495.40454	-44.31726	1621.23914	1375.02881	-62.68935	1621.14624	1460.44788	7.86965	1421.44092	1445.33472	44.32406	1127.60742	1458.00513	-134.92207	1350.44177	1465.93091	-176.52859	1197.51855	1383.61438	63.12486	1224.45520	1619.70618	-76.43964	1381.78503	1714.79858	-74.38439	1202.85107	1734.24316	-101.37129	1052.45618	1755.44019	-202.95471	994.06683	1732.36133	-336.81384	966.00244	1757.28625	-302.36499	923.89380	1771.33655	-383.33698	913.43689	1306.72449	-67.86544	1380.61670	1212.13171	19.78874	1190.26624	1206.16040	36.64201	1068.15649	1172.09558	33.19832	948.92511	1183.08618	-25.12859	819.31726	1148.65833	21.61117	828.77191	1145.09155	-1.18338	746.74847	1566.41235	-120.66700	922.43848	1350.14148	-145.02498	926.99347	1488.58984	58.34042	932.82861	1345.36609	40.27777	931.75769	1603.50476	-29.40236	595.24139	1583.30310	10.42222	463.64926	1583.07886	107.49800	299.20541	1522.91370	187.98608	95.92638	1468.88989	237.29707	79.75867	1529.18372	52.49069	32.40527	1274.77588	-167.10854	601.14081	1308.17493	-231.76863	460.19696	1295.38257	-242.99921	287.96762	1336.62988	-306.09256	85.29815	1388.81653	-277.68298	32.87226	1338.68994	-452.48230	92.47800	1417.31421	-175.35742	1689.51831	-3102.07520	1973.03357	1023.80365	-3140.65771	2012.51575	1021.94067			 
211	2.100	1507.42371	-175.09554	1652.94702	1394.53088	-195.61545	1653.32104	1493.67810	-54.54455	1620.61938	1373.53796	-72.89951	1620.51025	1458.62634	-2.33361	1420.61230	1443.95374	33.73142	1126.79114	1456.57336	-145.39059	1350.05139	1464.63660	-186.83968	1196.91748	1382.12976	52.70038	1223.53845	1618.01868	-86.62543	1381.41467	1713.40076	-84.82856	1202.72144	1733.42065	-112.01790	1052.43201	1754.56641	-213.99677	994.71478	1731.40210	-347.97989	967.47028	1756.38513	-313.82553	925.16302	1770.44580	-394.77356	915.25708	1305.05188	-78.14839	1379.67883	1210.87354	9.71538	1189.30859	1205.12048	26.84217	1067.32495	1171.28455	23.82227	947.99036	1181.89148	-33.84660	818.19653	1147.79407	13.24750	827.82257	1144.16199	-9.11044	745.53882	1566.17395	-131.22040	922.02228	1349.86230	-156.39038	926.32501	1487.53186	47.44286	932.18121	1344.31628	28.97093	930.95239	1603.62378	-38.03707	595.36981	1583.67346	2.64046	464.05154	1583.70728	102.39793	300.97485	1523.83020	186.36023	98.78242	1469.98767	236.06725	83.87865	1529.42407	52.36137	32.58766	1275.34229	-178.99426	600.56628	1308.35010	-242.20242	459.06070	1296.05396	-254.20132	287.03558	1337.32593	-318.31772	84.43846	1389.21472	-289.72577	31.92865	1341.37598	-464.74420	92.29053	1415.64001	-185.68024	1688.82178	-3101.99243	1972.93372	1023.85712	-3140.66528	2012.65637	1022.04883			 
212	2.110	1505.69373	-185.30688	1652.29663	1392.84045	-205.97298	1652.73669	1491.75073	-64.78055	1620.02075	1371.65320	-83.25081	1619.94324	1456.82190	-12.56712	1419.91943	1442.66418	22.96072	1125.94226	1454.83643	-155.60008	1349.39819	1463.35632	-197.39020	1196.47461	1380.69824	42.20084	1222.60864	1616.25146	-96.77802	1381.12134	1711.85120	-95.14282	1202.64893	1732.42053	-122.46503	1052.55652	1753.50256	-224.72360	995.23859	1730.34802	-358.76627	968.52435	1755.37024	-324.84085	926.09308	1769.44434	-405.81018	916.50537	1303.43835	-88.36863	1378.76086	1209.52271	-0.48350	1188.26758	1204.13599	16.80965	1066.38000	1170.20630	14.72297	947.16785	1180.67554	-42.83735	817.11310	1146.89551	4.41308	826.91559	1143.37927	-17.50665	744.28510	1565.55286	-142.05693	921.61029	1349.31824	-167.85873	925.76770	1486.50928	36.33933	931.57574	1343.43835	17.75159	930.17902	1603.67261	-47.14526	595.39655	1583.97620	-5.88828	464.08591	1584.44214	96.59174	302.70465	1525.02393	184.57376	102.07921	1471.20093	234.54385	88.15901	1529.59656	52.11650	32.62343	1276.19482	-191.27817	599.78943	1308.62964	-253.15807	457.95444	1296.88354	-264.41727	285.79260	1338.49304	-328.04401	83.01605	1390.23706	-299.21652	30.60352	1343.62830	-474.49313	90.85708	1413.93396	-196.03610	1688.21350	-3101.89575	1973.15637	1023.36151	-3140.63257	2012.54028	1021.94568			 
213	2.120	1503.85596	-195.56648	1651.66638	1390.95215	-216.29951	1652.09033	1489.77136	-75.03176	1619.47607	1369.74524	-93.55989	1619.40479	1454.98364	-22.84894	1419.24817	1441.32263	11.98991	1125.08472	1453.03601	-165.89873	1348.82593	1461.97253	-208.10388	1196.18335	1379.23096	31.52847	1221.60889	1614.38806	-106.98119	1380.85742	1710.26282	-105.29894	1202.75732	1731.26392	-132.69235	1052.63928	1752.37231	-235.12831	995.58551	1729.16406	-369.20090	969.15399	1754.34070	-335.40302	926.69183	1768.30603	-416.35461	917.22076	1301.61694	-98.68221	1377.87280	1208.03003	-10.86392	1187.24426	1202.96448	6.56733	1065.42444	1169.24792	4.79081	946.10815	1179.45813	-51.39463	815.81714	1145.87573	-4.75945	825.80084	1142.55029	-26.11168	743.07269	1564.88770	-153.12703	921.13507	1348.59790	-179.45953	925.29877	1485.52295	24.98488	930.99701	1342.66345	6.32210	929.39728	1603.66479	-56.79579	595.25140	1584.31799	-14.70772	464.14529	1584.98584	90.36255	304.38074	1526.16614	182.46062	105.31441	1473.03772	233.18402	92.91251	1529.80945	52.14415	32.37202	1277.05078	-204.18951	599.59540	1309.08179	-264.23093	456.94489	1297.96790	-273.68677	284.01984	1340.15601	-335.19550	80.95372	1392.18518	-306.35126	28.71656	1345.21167	-481.89206	87.78194	1412.07727	-206.36835	1687.58826	-3101.93359	1973.13757	1023.31598	-3140.86328	2012.61304	1022.01056			 
